<?xml version="1.0" standalone="no"?>
<!DOCTYPE svg PUBLIC "-//W3C//DTD SVG 20010904//EN"
 "http://www.w3.org/TR/2001/REC-SVG-20010904/DTD/svg10.dtd">
<svg version="1.0" xmlns="http://www.w3.org/2000/svg"
 width="52.000000pt" height="63.000000pt" viewBox="0 0 52.000000 63.000000"
 preserveAspectRatio="xMidYMid meet">

<g transform="translate(0.000000,63.000000) scale(0.100000,-0.100000)"
fill="#C8191F" stroke="C8191F">
<path d="M54 581 c-2 -2 -4 -123 -4 -268 l0 -264 58 3 57 3 3 87 c1 49 7 88
12 88 5 0 43 -40 86 -90 l77 -90 73 0 c41 0 74 3 74 6 0 3 -49 62 -110 130
-61 69 -110 128 -110 132 1 4 50 63 110 132 122 140 123 145 17 138 -55 -4
-63 -8 -86 -38 -14 -19 -52 -61 -83 -94 l-58 -61 0 92 c0 88 -1 93 -22 98 -24
6 -87 3 -94 -4z"/>
</g>
</svg>
